<?xml version="1.0" encoding="UTF-8"?>
<svg id="Layer_2" data-name="Layer 2" xmlns="http://www.w3.org/2000/svg" viewBox="0 0 144.04 93.46">
  <defs>
    <style>
      .cls-1 {
        fill: #fdcf06;
      }

      .cls-2 {
        fill: #1aa74a;
      }
    </style>
  </defs>
  <g id="Layer_2-2" data-name="Layer 2">
    <g>
      <g>
        <path class="cls-1" d="M45.19,70.87c0,12.48-10.12,22.59-22.6,22.59S0,83.35,0,70.87s10.12-22.59,22.59-22.59c.76,0,1.5.04,2.24.11.94.09,1.87.24,2.77.45.05.01.09.02.13.04,8.84,2.04,15.68,9.28,17.16,18.32.2,1.19.3,2.42.3,3.67Z"/>
        <path class="cls-1" d="M144.04,22.59c0,9.85-6.3,18.22-15.09,21.31.16-1.08.23-2.18.23-3.3,0-.66-.03-1.32-.08-1.96-1-12.83-11.73-22.93-24.82-22.93h-4.35c2.91-9.11,11.44-15.71,21.52-15.71,12.48,0,22.59,10.11,22.59,22.59Z"/>
      </g>
      <g>
        <path class="cls-2" d="M77.46,15.71l-13.74,37.77-4.99,13.72h-27.06l-5.97-16.41-.87-2.4-6.67-18.3-5.24-14.38h25.92c-1.95,11.81-8.15,27.29-11.24,33.13-.06.12-.13.24-.19.36.11-.11.22-.21.32-.32,3.22-3.18,6.02-6.6,8.25-9.56,2.96-3.97,5.48-8.24,7.54-12.75l4.97-10.86h28.97Z"/>
        <path class="cls-2" d="M129.1,38.64c-1-12.83-11.73-22.93-24.82-22.93h-20.31l-12.45,35.63-5.97,17.23-6.07,17.36h21.65l7.82-22.14.14-.36.16-.42.1-.27.11-.33.53-1.43s.01-.03.02-.08h.01s0,0-.01-.02l.02-.06s.04-.1.06-.17l.98-2.67.03-.07,2.27-6.19.26-.71c2.88-6.81,7.5-15.79,13.94-22.56,2.46-2.59,5.19-4.86,8.19-6.55-.7.81-1.39,1.68-2.05,2.61-2.99,4.09-5.66,9.16-7.96,14.32-.09.21-.19.42-.28.63-.37.84-.73,1.68-1.08,2.52-4.28,10.3-6.99,20.16-7.6,22.37.56.18,1.12.33,1.7.47,1.86.44,3.8.68,5.79.68,12.63,0,23.07-9.41,24.67-21.6.16-1.08.23-2.18.23-3.3,0-.66-.03-1.32-.08-1.96Z"/>
      </g>
    </g>
  </g>
</svg>